<?xml version="1.0" encoding="UTF-8" standalone="no"?>
<svg
   xmlns:dc="http://purl.org/dc/elements/1.1/"
   xmlns:cc="http://creativecommons.org/ns#"
   xmlns:rdf="http://www.w3.org/1999/02/22-rdf-syntax-ns#"
   xmlns:svg="http://www.w3.org/2000/svg"
   xmlns="http://www.w3.org/2000/svg"
   id="svg8"
   version="1.1"
   viewBox="0 0 134.96573 64.652946"
   height="64.652946mm"
   width="134.96573mm">
  <defs
     id="defs2" />
  <metadata
     id="metadata5">
    <rdf:RDF>
      <cc:Work
         rdf:about="">
        <dc:format>image/svg+xml</dc:format>
        <dc:type
           rdf:resource="http://purl.org/dc/dcmitype/StillImage" />
        <dc:title></dc:title>
      </cc:Work>
    </rdf:RDF>
  </metadata>
  <g
     transform="translate(282.0081,12.468019)"
     id="layer1">
    <text
       transform="scale(0.82046837,1.218816)"
       id="text4498"
       y="-10.748647"
       x="-111.79776"
       style="font-style:normal;font-weight:normal;font-size:54.31304169px;line-height:33.94565201px;font-family:sans-serif;letter-spacing:0px;word-spacing:0px;fill:#000000;fill-opacity:1;stroke:none;stroke-width:1.35782623"
       xml:space="preserve"><tspan
         style="font-style:normal;font-variant:normal;font-weight:bold;font-stretch:normal;font-family:arial;-inkscape-font-specification:'arial Bold';stroke-width:1.35782623"
         y="20.33284"
         x="-111.79776"
         id="tspan4496" /></text>
    <g
       id="g4587">
      <path
         style="fill:#e51b24;fill-opacity:1;stroke:none;stroke-width:0.2;stroke-linejoin:round;stroke-miterlimit:4;stroke-dasharray:none;stroke-opacity:1"
         d="m -282.0081,-12.468019 38.81823,21.2989709 V 29.619641 L -282.0081,8.3206721 Z"
         id="rect4500" />
      <g
         aria-label="A"
         transform="scale(0.86598815,1.1547502)"
         style="font-style:normal;font-weight:normal;font-size:57.32633972px;line-height:35.82896423px;font-family:sans-serif;letter-spacing:0px;word-spacing:0px;fill:#000000;fill-opacity:1;stroke:none;stroke-width:1.43315876"
         id="text4498-8">
        <path
           d="m -202.95098,41.192631 h -9.01323 l -3.58289,-9.321129 h -16.40295 l -3.38695,9.321129 h -8.7893 l 15.98308,-41.03535865 h 8.7613 z m -15.2553,-16.234999 -5.65426,-15.2273088 -5.54229,15.2273088 z"
           style="font-style:normal;font-variant:normal;font-weight:bold;font-stretch:normal;font-family:arial;-inkscape-font-specification:'arial Bold';stroke-width:1.43315876"
           id="path4576" />
      </g>
      <g
         aria-label="C"
         transform="scale(0.86924271,1.1504267)"
         style="font-style:normal;font-weight:normal;font-size:57.54178619px;line-height:35.96361542px;font-family:sans-serif;letter-spacing:0px;word-spacing:0px;fill:#000000;fill-opacity:1;stroke:none;stroke-width:1.43854487"
         id="text4498-6">
        <path
           d="m -177.22518,26.400521 8.06372,2.556788 q -1.85438,6.743178 -6.18125,10.030477 -4.29878,3.259203 -10.92957,3.259203 -8.2042,0 -13.48636,-5.591218 -5.28215,-5.619315 -5.28215,-15.34073 0,-10.283347 5.31025,-15.9588552 5.31025,-5.70360482 13.964,-5.70360482 7.55798,0 12.2782,4.46735552 2.80966,2.641078 4.21449,7.5860755 l -8.2323,1.96676 q -0.73051,-3.20301 -3.06252,-5.0573835 -2.30392,-1.854374 -5.61932,-1.854374 -4.57974,0 -7.44559,3.2872995 -2.83776,3.287299 -2.83776,10.648602 0,7.810848 2.80966,11.126244 2.80966,3.315396 7.30511,3.315396 3.3154,0 5.70361,-2.107244 2.3882,-2.107243 3.42778,-6.630791 z"
           style="font-style:normal;font-variant:normal;font-weight:bold;font-stretch:normal;font-family:arial;-inkscape-font-specification:'arial Bold';stroke-width:1.43854487"
           id="path4573" />
      </g>
      <g
         aria-label="D"
         transform="scale(0.88194745,1.1338544)"
         style="font-style:normal;font-weight:normal;font-size:58.38280869px;line-height:36.48925781px;font-family:sans-serif;letter-spacing:0px;word-spacing:0px;fill:#000000;fill-opacity:1;stroke:none;stroke-width:1.45957041"
         id="text4531">
        <path
           d="m -271.78114,0.65787016 h 15.42241 q 5.21682,0 7.95352,0.79820244 3.67743,1.0832748 6.30009,3.8484762 2.62267,2.7652014 3.99102,6.7847212 1.36834,3.991012 1.36834,9.863502 0,5.159808 -1.28282,8.894256 -1.5679,4.561157 -4.47564,7.383372 -2.19505,2.138043 -5.9295,3.335346 -2.79371,0.883725 -7.4689,0.883725 h -15.87852 z M -263.343,7.7276634 V 35.408185 h 6.30009 q 3.5349,0 5.1028,-0.399102 2.05252,-0.51313 3.39236,-1.738941 1.36835,-1.225811 2.22356,-4.019519 0.85522,-2.822216 0.85522,-7.668445 0,-4.84623 -0.85522,-7.440388 -0.85521,-2.594158 -2.3946,-4.048026 -1.53939,-1.4538692 -3.90549,-1.9669994 -1.76745,-0.3991012 -6.92726,-0.3991012 z"
           style="font-style:normal;font-variant:normal;font-weight:bold;font-stretch:normal;font-family:arial;-inkscape-font-specification:'arial Bold';stroke-width:1.45957041"
           id="path4570" />
      </g>
      <path
         style="fill:#00a651;fill-opacity:1;stroke:none;stroke-width:0.2;stroke-linejoin:round;stroke-miterlimit:4;stroke-dasharray:none;stroke-opacity:1"
         d="m -263.34258,21.138761 -18.66552,10.257255 v 20.788913 l 37.58065,-20.65197 z"
         id="rect4500-7" />
    </g>
  </g>
</svg>
