<?xml version="1.0" encoding="UTF-8"?>
<svg width="172px" height="90px" viewBox="0 0 172 90" version="1.1" xmlns="http://www.w3.org/2000/svg" xmlns:xlink="http://www.w3.org/1999/xlink">
    <!-- Generator: Sketch 60.1 (88133) - https://sketch.com -->
    <title>Logo</title>
    <desc>Created with Sketch.</desc>
    <g id="Definitivo" stroke="none" stroke-width="1" fill="none" fill-rule="evenodd">
        <g id="Home" transform="translate(-224.000000, -4289.000000)">
            <g id="Logo" transform="translate(224.000000, 4289.000000)">
                <path d="M30.5511987,0.0236909513 L129.984413,0.0118051533 C129.984413,0.0118051533 139.611679,-0.656440821 146.570733,8.0624523 C146.718967,8.35827661 167.331427,33.7159662 167.331427,33.7159662 C167.331427,33.7159662 177.726332,44.0592517 167.494219,57.0636353 C167.494219,57.2115475 147.043229,80.1154802 147.043229,80.1154802 C147.043229,80.1154802 139.786383,90.658183 128.234723,89.967486 L15.0382514,89.967486 L16.6357369,82.8597788 C16.6357369,82.8597788 17.5317581,79.184426 22.1918629,79.1883879 L128.234723,79.1883879 C128.234723,79.1883879 132.974239,79.6717437 135.788037,76.2737261 C135.788037,76.4216383 159.482969,49.5267188 159.482969,49.5267188 C159.482969,49.5267188 163.184847,45.8328769 159.482969,41.10365 L139.045213,16.1302678 C139.045213,16.1302678 135.908477,11.0180541 128.234723,11.2544494 L34.340429,11.2544494 C34.340429,11.2544494 28.4640118,11.5621595 28.8015087,7.17894132" id="Fill-556" fill="#E46D2A"></path>
                <path d="M15.0382514,78.75 L1.68755705,78.7513788 L0.0134391261,85.9141226 C-0.31003003,90.3041469 5.31305216,89.995301 5.31305216,89.995301 L12.4333344,89.995301 L15.0382514,78.75 Z" id="Fill-558" fill="#E46D2A"></path>
                <path d="M100.017629,41.4967781 C97.6819714,38.8322594 94.0563544,37.5 89.1394579,37.5 C83.5954062,37.5 78.805261,39.0558461 74.7690223,42.1675383 C70.734104,45.2805535 68.2017175,49.0735898 67.1705423,53.5492934 C66.1037184,58.1744957 66.9843763,61.9688551 69.812516,64.9310484 C72.6393354,67.8932418 76.8657011,69.375 82.4929334,69.375 C86.8090813,69.375 91.7180558,68.2769113 97.2224977,66.082057 L99.4036774,56.6186496 C96.6019442,58.2168317 94.3917174,59.3255043 92.7729969,59.9433445 C91.1542764,60.5625078 89.4563363,60.8707664 87.6804969,60.8707664 C85.3831285,60.8707664 83.6284143,60.358766 82.4150341,59.3360883 C81.2029742,58.3134105 80.5309279,56.7787324 80.4015359,54.7320539 L101.392089,54.7320539 L101.974353,52.20645 C103.005529,47.7307465 102.353287,44.1612968 100.017629,41.4967781 M91.4975613,48.3062508 L91.2612228,49.3289285 L81.0313318,49.3289285 C81.634721,47.304741 82.4968944,45.7912309 83.6178517,44.7897211 C84.7388091,43.7882113 86.1211911,43.2867949 87.7649978,43.2867949 C89.1619034,43.2867949 90.2128834,43.7776273 90.9179379,44.7579691 C91.6229923,45.7383109 91.8170803,46.9210715 91.4975613,48.3062508" id="Fill-560" fill="#002344"></path>
                <path d="M101.508197,66.7211949 C105.685212,68.4908428 109.777803,69.375 113.789989,69.375 C118.568699,69.375 122.710872,68.3628201 126.21651,66.3371266 C129.720808,64.3127667 131.815346,61.8296586 132.497444,58.8878023 C133.466319,54.7110597 130.47661,51.6731863 123.528318,49.7768492 C120.966094,49.0940612 119.789508,48.3059211 119.997219,47.4110953 C120.149988,46.7496444 120.580152,46.260224 121.286372,45.9401671 C121.992592,45.6201102 122.976207,45.4600818 124.239898,45.4600818 C127.041996,45.4600818 129.730188,46.4829303 132.304473,48.5299609 L134.404372,39.4816856 C131.056863,38.1601174 127.515043,37.5 123.780253,37.5 C119.466549,37.5 115.607132,38.3628201 112.197979,40.0897937 C108.790167,41.8154339 106.757273,44.0971728 106.099296,46.93101 C105.742835,48.4659495 106.029612,50.0115576 106.960964,51.5665007 C107.889637,53.1227774 110.399598,54.5616999 114.488169,55.8832681 C116.199445,56.4380334 117.34387,56.9221195 117.921442,57.3381935 C118.497675,57.7529339 118.716107,58.2596906 118.578079,58.8557966 C118.395829,59.6452703 117.822277,60.2787162 116.860102,60.7588016 C115.896588,61.2375533 114.824528,61.477596 113.643921,61.477596 C110.567108,61.477596 107.23836,60.1346906 103.659018,57.4502134 L101.508197,66.7211949 Z" id="Fill-562" fill="#002344"></path>
                <path d="M20.2277445,54.9336694 C19.0461253,60.0145654 20.0015336,63.8490293 23.0926388,66.4344176 C26.1824134,69.0198059 31.055262,70.3125 37.709854,70.3125 C44.5866649,70.3125 50.2286305,68.9748656 54.6384122,66.2995967 C59.0455325,63.6243279 61.8199424,59.8348043 62.9589808,54.9336694 L70.4918033,22.5237919 L54.9963576,22.5237919 L47.6045843,54.3269756 C47.077646,56.5977818 46.182117,58.3015474 44.9206586,59.4356288 C43.6578696,60.5710319 42.0131834,61.1393944 39.9852694,61.1393944 C38.0518316,61.1393944 36.7464618,60.5155174 36.0704904,59.2677636 C35.3931884,58.0200097 35.3439543,56.1589532 35.918796,53.6859156 L43.4516185,22.5 L27.760567,22.5237919 L20.2277445,54.9336694 Z" id="Fill-564" fill="#002344"></path>
                <path d="M28.1967213,0 L15.7743212,0.00137877648 L14.1117074,7.1641226 C13.7904611,11.5541469 19.3749029,11.245301 19.3749029,11.245301 L25.6097047,11.245301 L28.1967213,0 Z" id="Fill-566" fill="#E46D2A"></path>
            </g>
        </g>
    </g>
</svg>